<?xml version="1.0" encoding="iso-8859-1"?>
<!-- Uploaded to: SVG Repo, www.svgrepo.com, Generator: SVG Repo Mixer Tools -->
<svg fill="#000000" height="800px" width="800px" version="1.1" id="Layer_1" xmlns="http://www.w3.org/2000/svg" xmlns:xlink="http://www.w3.org/1999/xlink" 
	 viewBox="0 0 512 512" xml:space="preserve">
<g>
	<g>
		<path d="M494.14,37.005H17.86C7.997,37.005,0,45.001,0,54.865c0,9.507,0,399.452,0,402.27c0,9.864,7.997,17.86,17.86,17.86
			h188.705c7.155,0,13.619-4.27,16.428-10.851c3.178-7.448,28.959-67.869,33.006-77.352c4.048,9.489,29.817,69.882,33.005,77.352
			c2.808,6.581,9.273,10.851,16.428,10.851H494.14c9.864,0,17.86-7.997,17.86-17.86c0-2.704,0-392.833,0-402.27
			C512,45.001,504.003,37.005,494.14,37.005z M194.768,439.275H35.721v-17.444h166.49L194.768,439.275z M476.279,439.275H317.23
			l-7.443-17.444h166.492V439.275z M476.279,386.109H294.545l-13.975-32.753c17.635-9.062,21.113-19.651,44.921-60.888
			c4.933-8.542,2.006-19.467-6.537-24.397c-8.543-4.935-19.467-2.006-24.397,6.537l-23.09,39.992
			c-6.83,11.831-24.023,11.972-30.934,0l-23.09-39.992c-4.933-8.543-15.854-11.471-24.397-6.537
			c-8.543,4.932-11.47,15.855-6.537,24.397c24.206,41.926,27.434,51.9,44.921,60.888l-13.975,32.754H35.721V169.567h440.558V386.109
			z M476.279,133.845H35.721v-61.12h440.558V133.845z"/>
	</g>
</g>
</svg>