<?xml version="1.0" ?>
<!-- Uploaded to: SVG Repo, www.svgrepo.com, Generator: SVG Repo Mixer Tools -->
<svg fill="#000000" width="800px" height="800px" viewBox="0 0 24 24" xmlns="http://www.w3.org/2000/svg">
<title/>
<g data-name="Layer 2" id="Layer_2">
<path d="M2,9v5H3a4,4,0,0,1,4,4v1H17V18a4,4,0,0,1,4-4h1V5H2Zm2,3.08V11H8.23L6.8,13.38A6,6,0,0,0,4,12.08ZM8.92,17a5.94,5.94,0,0,0-.75-2l2.39-4h2.87l2.39,4a5.94,5.94,0,0,0-.75,2ZM20,12.08a6,6,0,0,0-2.8,1.3L15.77,11H20ZM4,7H20V9H4Z"/>
</g>
</svg>